<svg aria-hidden="true" style="position: absolute; width: 0; height: 0; overflow: hidden;" version="1.1" xmlns="http://www.w3.org/2000/svg" xmlns:xlink="http://www.w3.org/1999/xlink">
<defs>
<symbol id="icon-arrow_left" viewBox="0 0 18 32">
<path fill="#535353" style="fill: var(--color1, #535353)" d="M17.253 3.611l-2.425-2.423-13.209 13.205c-0.213 0.212-0.382 0.463-0.497 0.74s-0.175 0.574-0.175 0.875c0 0.3 0.059 0.597 0.175 0.875s0.284 0.529 0.497 0.74l13.209 13.211 2.423-2.423-12.398-12.4 12.4-12.4z"></path>
</symbol>
<symbol id="icon-arrow_right" viewBox="0 0 18 32">
<path fill="#535353" style="fill: var(--color1, #535353)" d="M0 2.615l2.614-2.615 14.236 14.253c0.229 0.228 0.412 0.5 0.536 0.799s0.188 0.62 0.188 0.944c0 0.324-0.064 0.645-0.188 0.944s-0.306 0.571-0.536 0.799l-14.236 14.261-2.611-2.615 13.361-13.385-13.364-13.385z"></path>
</symbol>
<symbol id="icon-youtube" viewBox="0 0 32 32">
<path d="M31.331 8.248c-0.181-0.681-0.538-1.302-1.034-1.802s-1.115-0.861-1.795-1.046c-2.495-0.673-12.501-0.673-12.501-0.673s-10.007 0-12.503 0.673c-0.679 0.186-1.298 0.547-1.794 1.047s-0.853 1.121-1.034 1.801c-0.669 2.512-0.669 7.752-0.669 7.752s0 5.24 0.669 7.752c0.181 0.681 0.538 1.302 1.034 1.802s1.115 0.861 1.795 1.046c2.495 0.673 12.501 0.673 12.501 0.673s10.007 0 12.503-0.673c0.68-0.186 1.298-0.546 1.795-1.046s0.853-1.121 1.034-1.802c0.668-2.512 0.668-7.752 0.668-7.752s0-5.24-0.669-7.752zM12.727 20.757v-9.515l8.364 4.757-8.364 4.757z"></path>
</symbol>
<symbol id="icon-telegram" viewBox="0 0 32 32">
<path d="M16 2.667c-7.36 0-13.333 5.973-13.333 13.333s5.973 13.333 13.333 13.333c7.36 0 13.333-5.973 13.333-13.333s-5.973-13.333-13.333-13.333zM22.187 11.733c-0.2 2.107-1.067 7.227-1.507 9.587-0.187 1-0.56 1.333-0.907 1.373-0.773 0.067-1.36-0.507-2.107-1-1.173-0.773-1.84-1.253-2.973-2-1.32-0.867-0.467-1.347 0.293-2.12 0.2-0.2 3.613-3.307 3.68-3.587 0.009-0.042 0.008-0.086-0.004-0.128s-0.033-0.080-0.063-0.112c-0.080-0.067-0.187-0.040-0.28-0.027-0.12 0.027-1.987 1.267-5.627 3.72-0.533 0.36-1.013 0.547-1.44 0.533-0.48-0.013-1.387-0.267-2.067-0.493-0.84-0.267-1.493-0.413-1.44-0.88 0.027-0.24 0.36-0.48 0.987-0.733 3.893-1.693 6.48-2.813 7.773-3.347 3.707-1.547 4.467-1.813 4.973-1.813 0.107 0 0.36 0.027 0.52 0.16 0.133 0.107 0.173 0.253 0.187 0.36-0.013 0.080 0.013 0.32 0 0.507z"></path>
</symbol>
<symbol id="icon-instagram" viewBox="0 0 32 32">
<path d="M10.4 2.667h11.2c4.267 0 7.733 3.467 7.733 7.733v11.2c0 2.051-0.815 4.018-2.265 5.468s-3.417 2.265-5.468 2.265h-11.2c-4.267 0-7.733-3.467-7.733-7.733v-11.2c0-2.051 0.815-4.018 2.265-5.468s3.417-2.265 5.468-2.265zM10.133 5.333c-1.273 0-2.494 0.506-3.394 1.406s-1.406 2.121-1.406 3.394v11.733c0 2.653 2.147 4.8 4.8 4.8h11.733c1.273 0 2.494-0.506 3.394-1.406s1.406-2.121 1.406-3.394v-11.733c0-2.653-2.147-4.8-4.8-4.8h-11.733zM23 7.333c0.442 0 0.866 0.176 1.178 0.488s0.488 0.737 0.488 1.179-0.176 0.866-0.488 1.178c-0.313 0.313-0.736 0.488-1.178 0.488s-0.866-0.176-1.179-0.488c-0.313-0.313-0.488-0.736-0.488-1.178s0.176-0.866 0.488-1.179c0.313-0.313 0.736-0.488 1.179-0.488zM16 9.333c1.768 0 3.464 0.702 4.714 1.953s1.953 2.946 1.953 4.714c0 1.768-0.702 3.464-1.953 4.714s-2.946 1.953-4.714 1.953c-1.768 0-3.464-0.702-4.714-1.953s-1.953-2.946-1.953-4.714c0-1.768 0.702-3.464 1.953-4.714s2.946-1.953 4.714-1.953zM16 12c-1.061 0-2.078 0.421-2.828 1.172s-1.172 1.768-1.172 2.828c0 1.061 0.421 2.078 1.172 2.828s1.768 1.172 2.828 1.172c1.061 0 2.078-0.421 2.828-1.172s1.172-1.768 1.172-2.828c0-1.061-0.421-2.078-1.172-2.828s-1.768-1.172-2.828-1.172z"></path>
</symbol>
<symbol id="icon-internet" viewBox="0 0 32 32">
<path d="M21.813 18.667c0.107-0.88 0.187-1.76 0.187-2.667s-0.080-1.787-0.187-2.667h4.507c0.213 0.853 0.347 1.747 0.347 2.667s-0.133 1.813-0.347 2.667zM19.453 26.080c0.8-1.48 1.413-3.080 1.84-4.747h3.933c-1.292 2.224-3.341 3.909-5.773 4.747zM19.12 18.667h-6.24c-0.133-0.88-0.213-1.76-0.213-2.667s0.080-1.8 0.213-2.667h6.24c0.12 0.867 0.213 1.76 0.213 2.667s-0.093 1.787-0.213 2.667zM16 26.613c-1.107-1.6-2-3.373-2.547-5.28h5.093c-0.547 1.907-1.44 3.68-2.547 5.28zM10.667 10.667h-3.893c1.278-2.231 3.326-3.918 5.76-4.747-0.8 1.48-1.4 3.080-1.867 4.747zM6.773 21.333h3.893c0.467 1.667 1.067 3.267 1.867 4.747-2.429-0.837-4.474-2.522-5.76-4.747zM5.68 18.667c-0.213-0.853-0.347-1.747-0.347-2.667s0.133-1.813 0.347-2.667h4.507c-0.107 0.88-0.187 1.76-0.187 2.667s0.080 1.787 0.187 2.667zM16 5.373c1.107 1.6 2 3.387 2.547 5.293h-5.093c0.547-1.907 1.44-3.693 2.547-5.293zM25.227 10.667h-3.933c-0.418-1.651-1.036-3.245-1.84-4.747 2.453 0.84 4.493 2.533 5.773 4.747zM16 2.667c-7.373 0-13.333 6-13.333 13.333 0 3.536 1.405 6.928 3.905 9.428 1.238 1.238 2.708 2.22 4.326 2.89s3.351 1.015 5.102 1.015c3.536 0 6.928-1.405 9.428-3.905s3.905-5.892 3.905-9.428c0-1.751-0.345-3.485-1.015-5.102s-1.652-3.088-2.89-4.326-2.708-2.22-4.326-2.89c-1.618-0.67-3.351-1.015-5.102-1.015z"></path>
</symbol>
<symbol id="icon-mail" viewBox="0 0 32 32">
<path d="M29.333 8c0-1.467-1.2-2.667-2.667-2.667h-21.333c-1.467 0-2.667 1.2-2.667 2.667v16c0 1.467 1.2 2.667 2.667 2.667h21.333c1.467 0 2.667-1.2 2.667-2.667v-16zM26.667 8l-10.667 6.667-10.667-6.667h21.333zM26.667 24h-21.333v-13.333l10.667 6.667 10.667-6.667v13.333z"></path>
</symbol>
<symbol id="icon-phone" viewBox="0 0 32 32">
<path d="M8.72 6.667c0.080 1.187 0.28 2.347 0.6 3.453l-1.6 1.6c-0.547-1.6-0.893-3.293-1.013-5.053h2.013zM21.867 22.693c1.133 0.32 2.293 0.52 3.467 0.6v1.987c-1.76-0.12-3.453-0.467-5.067-1l1.6-1.587zM10 4h-4.667c-0.733 0-1.333 0.6-1.333 1.333 0 12.52 10.147 22.667 22.667 22.667 0.733 0 1.333-0.6 1.333-1.333v-4.653c0-0.733-0.6-1.333-1.333-1.333-1.653 0-3.267-0.267-4.76-0.76-0.132-0.049-0.273-0.072-0.413-0.067-0.347 0-0.68 0.133-0.947 0.387l-2.933 2.933c-3.779-1.933-6.854-5.007-8.787-8.787l2.933-2.933c0.373-0.373 0.48-0.893 0.333-1.36-0.505-1.536-0.761-3.143-0.76-4.76 0-0.733-0.6-1.333-1.333-1.333z"></path>
</symbol>
<symbol id="icon-account_circle" viewBox="0 0 32 32">
<path d="M7.8 22.8q1.7-1.3 3.8-2.050t4.4-0.75 4.4 0.75 3.8 2.050q1.167-1.367 1.817-3.1t0.65-3.7q0-4.433-3.117-7.55t-7.55-3.117-7.55 3.117-3.117 7.55q0 1.967 0.65 3.7t1.817 3.1zM16 17.333q-1.967 0-3.317-1.35t-1.35-3.317 1.35-3.317 3.317-1.35 3.317 1.35 1.35 3.317-1.35 3.317-3.317 1.35zM16 29.333q-2.767 0-5.2-1.050t-4.233-2.85-2.85-4.233-1.050-5.2 1.050-5.2 2.85-4.233 4.233-2.85 5.2-1.050 5.2 1.050 4.233 2.85 2.85 4.233 1.050 5.2-1.050 5.2-2.85 4.233-4.233 2.85-5.2 1.050zM16 26.667q1.767 0 3.333-0.517t2.867-1.483q-1.3-0.967-2.867-1.483t-3.333-0.517-3.333 0.517-2.867 1.483q1.3 0.967 2.867 1.483t3.333 0.517zM16 14.667q0.867 0 1.433-0.567t0.567-1.433-0.567-1.433-1.433-0.567-1.433 0.567-0.567 1.433 0.567 1.433 1.433 0.567z"></path>
</symbol>
<symbol id="icon-local_mall" viewBox="0 0 32 32">
<path d="M6.667 29.333q-1.1 0-1.883-0.783t-0.783-1.883v-16q0-1.1 0.783-1.883t1.883-0.783h2.667q0-2.767 1.95-4.717t4.717-1.95 4.717 1.95 1.95 4.717h2.667q1.1 0 1.883 0.783t0.783 1.883v16q0 1.1-0.783 1.883t-1.883 0.783h-18.667zM6.667 26.667h18.667v-16h-18.667v16zM16 18.667q2.767 0 4.717-1.95t1.95-4.717h-2.667q0 1.667-1.167 2.833t-2.833 1.167-2.833-1.167-1.167-2.833h-2.667q0 2.767 1.95 4.717t4.717 1.95zM12 8h8q0-1.667-1.167-2.833t-2.833-1.167-2.833 1.167-1.167 2.833zM6.667 26.667v0z"></path>
</symbol>
</defs>
</svg>
